<svg width="100" height="100" viewBox="0 0 100 100" xmlns="http://www.w3.org/2000/svg" fill="none">
    <!-- Monitor screen -->
    <rect x="20" y="20" width="60" height="40" rx="4" stroke="#000000" stroke-width="3" />

    <!-- Top bar inside the screen (website header) -->
    <rect x="23" y="23" width="13" height="6" rx="2" fill="#000000" />
    <rect x="36.5" y="23" width="13" height="6" rx="2" fill="#000000" />
    <rect x="50" y="23" width="13" height="6" rx="2" fill="#000000" />
    <rect x="63.5" y="23" width="13" height="6" rx="2" fill="#000000" />

    <!-- Scrollbar inside the screen -->
    <rect x="75" y="30" width="2" height="24" rx="1" fill="#000000" />

    <g transform="translate(24, 31) scale(1.2)" stroke="black" stroke-width="1.2" fill="none">
        <!-- Back square (only visible portion) -->
        <path d="M3 3 H10 V7 H7 V10 H3 Z" />

        <!-- Middle square (only visible portion) -->
        <path d="M7 7 H14 V11 H11 V14 H7 Z" />

        <!-- Front square (fully visible) -->
        <rect x="11" y="11" width="7" height="7" />
    </g>


       <g transform="translate(43, 32)" fill="none" stroke="black" stroke-width="1" stroke-linecap="round" stroke-linejoin="round">
        <!-- Lightning bolt -->
        <path stroke-width="2" d="M13 2L6 14h5l-1 8L18 10h-5l1-8z" fill="none" />
        <!-- Dashes to the right -->
        <line x1="17" y1="2" x2="24" y2="2" />
        <line x1="17" y1="7" x2="24" y2="7" />
        <line x1="20" y1="12" x2="27" y2="12" />
        <line x1="18" y1="17" x2="25" y2="17" />
        <line x1="15" y1="22" x2="22" y2="22" />
    </g>

    <!-- Monitor stand -->
    <line x1="50" y1="60" x2="50" y2="70" stroke="#000" stroke-width="3" />
    <rect x="40" y="70" width="20" height="5" rx="2" fill="#000000" />
</svg>