<svg width="100" height="100" viewBox="0 0 100 100" xmlns="http://www.w3.org/2000/svg" fill="none">
  <!-- Monitor screen -->
  <rect x="20" y="20" width="60" height="40" rx="4" stroke="#000000" stroke-width="3" />

  <!-- Top bar inside the screen (website header) -->
  <rect x="23" y="23" width="54" height="6" rx="2" fill="#000000" />

  <!-- Scrollbar inside the screen -->
  <rect x="75" y="30" width="2" height="24" rx="1" fill="#000000" />

  <!-- Monitor stand -->
  <line x1="50" y1="60" x2="50" y2="70" stroke="#000" stroke-width="3" />
  <rect x="40" y="70" width="20" height="5" rx="2" fill="#000000" />

  <g transform="translate(37,31) scale(0.190)">
    <path
      d="M111.9,61.57a5.36,5.36,0,0,1,10.71,0A61.3,61.3,0,0,1,17.54,104.48v12.35a5.36,5.36,0,0,1-10.72,0V89.31A5.36,5.36,0,0,1,12.18,84H40a5.36,5.36,0,1,1,0,10.71H23a50.6,50.6,0,0,0,88.87-33.1ZM106.6,5.36a5.36,5.36,0,1,1,10.71,0V33.14A5.36,5.36,0,0,1,112,38.49H84.44a5.36,5.36,0,1,1,0-10.71H99A50.6,50.6,0,0,0,10.71,61.57,5.36,5.36,0,1,1,0,61.57,61.31,61.31,0,0,1,91.07,8,61.83,61.83,0,0,1,106.6,20.27V5.36Z"
      fill="#000000"/>
  </g>
</svg>

